<svg xmlns="http://www.w3.org/2000/svg" xmlns:xlink="http://www.w3.org/1999/xlink" width="24" height="24" viewBox="0 0 24 24"><defs><style>.a{fill:none;}.b{clip-path:url(#a);}.c,.d{fill:#5d5d5d;}.c{stroke:#707070;opacity:0;}.e{stroke:none;}</style><clipPath id="a"><rect class="a" width="24" height="24"/></clipPath></defs><g class="b"><g class="c"><rect class="e" width="24" height="24"/><rect class="a" x="0.5" y="0.5" width="23" height="23"/></g><g transform="translate(0.286 2)"><path class="d" d="M21,2.889H16.026V1.433A1.435,1.435,0,0,0,14.592,0H8.859A1.435,1.435,0,0,0,7.425,1.433V2.889H2.431a.717.717,0,1,0,0,1.433H4.6V17.254a2.816,2.816,0,0,0,2.813,2.813h8.6A2.875,2.875,0,0,0,18.892,17.2V4.323H21a.717.717,0,1,0,0-1.433ZM8.859,1.433h5.733V2.889H8.859Zm8.6,15.762a1.44,1.44,0,0,1-1.439,1.439h-8.6a1.381,1.381,0,0,1-1.379-1.379V4.323H17.459Z" transform="translate(0)"/><path class="d" d="M293.86,366.857a.717.717,0,0,0-.717.717V374.7a.717.717,0,1,0,1.433,0v-7.122A.717.717,0,0,0,293.86,366.857Zm3.583,0a.717.717,0,0,0-.717.717V374.7a.717.717,0,1,0,1.433,0v-7.122A.717.717,0,0,0,297.443,366.857Zm2.867.717V374.7a.717.717,0,1,0,1.433,0v-7.122a.717.717,0,1,0-1.433,0Z" transform="translate(-285.717 -359.668)"/></g></g></svg>